<svg xmlns="http://www.w3.org/2000/svg" width="196.31" height="35" viewBox="0 0 196.31 35"><rect class="svg__rect" x="0" y="0" width="97.71000000000001" height="35" fill="#E46C17"/><rect class="svg__rect" x="95.71000000000001" y="0" width="100.6" height="35" fill="#D35B09"/><path class="svg__text" d="M17.33 22L14.22 22L14.22 13.47L17.14 13.47Q18.59 13.47 19.34 14.05Q20.10 14.63 20.10 15.78L20.10 15.78Q20.10 16.36 19.78 16.83Q19.47 17.30 18.86 17.56L18.86 17.56Q19.55 17.75 19.93 18.26Q20.31 18.78 20.31 19.51L20.31 19.51Q20.31 20.71 19.53 21.36Q18.76 22 17.33 22L17.33 22ZM15.70 18.15L15.70 20.82L17.35 20.82Q18.04 20.82 18.44 20.47Q18.83 20.13 18.83 19.51L18.83 19.51Q18.83 18.18 17.47 18.15L17.47 18.15L15.70 18.15ZM15.70 14.66L15.70 17.06L17.15 17.06Q17.84 17.06 18.23 16.75Q18.62 16.43 18.62 15.86L18.62 15.86Q18.62 15.23 18.26 14.95Q17.90 14.66 17.14 14.66L17.14 14.66L15.70 14.66ZM24.64 19.16L24.64 19.16L24.64 13.47L26.12 13.47L26.12 19.18Q26.12 20.03 26.55 20.48Q26.98 20.93 27.83 20.93L27.83 20.93Q29.54 20.93 29.54 19.13L29.54 19.13L29.54 13.47L31.02 13.47L31.02 19.17Q31.02 20.53 30.15 21.32Q29.28 22.12 27.83 22.12L27.83 22.12Q26.36 22.12 25.50 21.33Q24.64 20.55 24.64 19.16ZM37.15 22L35.67 22L35.67 13.47L37.15 13.47L37.15 22ZM47.32 22L41.96 22L41.96 13.47L43.44 13.47L43.44 20.82L47.32 20.82L47.32 22ZM53.12 14.66L50.49 14.66L50.49 13.47L57.25 13.47L57.25 14.66L54.59 14.66L54.59 22L53.12 22L53.12 14.66ZM70.10 22L66.99 22L66.99 13.47L69.91 13.47Q71.36 13.47 72.11 14.05Q72.87 14.63 72.87 15.78L72.87 15.78Q72.87 16.36 72.55 16.83Q72.24 17.30 71.63 17.56L71.63 17.56Q72.32 17.75 72.70 18.26Q73.07 18.78 73.07 19.51L73.07 19.51Q73.07 20.71 72.30 21.36Q71.53 22 70.10 22L70.10 22ZM68.47 18.15L68.47 20.82L70.12 20.82Q70.81 20.82 71.21 20.47Q71.60 20.13 71.60 19.51L71.60 19.51Q71.60 18.18 70.24 18.15L70.24 18.15L68.47 18.15ZM68.47 14.66L68.47 17.06L69.92 17.06Q70.61 17.06 71.00 16.75Q71.39 16.43 71.39 15.86L71.39 15.86Q71.39 15.23 71.03 14.95Q70.67 14.66 69.91 14.66L69.91 14.66L68.47 14.66ZM79.58 18.86L76.72 13.47L78.37 13.47L80.33 17.51L82.29 13.47L83.93 13.47L81.07 18.86L81.07 22L79.58 22L79.58 18.86Z" fill="#FFFFFF"/><path class="svg__text" d="M112.28 22L109.90 22L109.90 13.60L116.49 13.60L116.49 15.44L112.28 15.44L112.28 17.28L115.99 17.28L115.99 19.12L112.28 19.12L112.28 22ZM121.01 18.26L121.01 18.26L121.01 13.60L123.39 13.60L123.39 18.19Q123.39 20.20 124.99 20.20L124.99 20.20Q126.57 20.20 126.57 18.19L126.57 18.19L126.57 13.60L128.91 13.60L128.91 18.26Q128.91 20.13 127.87 21.15Q126.83 22.17 124.96 22.17L124.96 22.17Q123.09 22.17 122.05 21.15Q121.01 20.13 121.01 18.26ZM136.38 22L134.00 22L134.00 13.60L137.84 13.60Q138.98 13.60 139.82 13.98Q140.66 14.35 141.12 15.06Q141.57 15.76 141.57 16.71L141.57 16.71Q141.57 17.62 141.15 18.30Q140.72 18.98 139.93 19.36L139.93 19.36L141.74 22L139.19 22L137.67 19.77L136.38 19.77L136.38 22ZM136.38 15.47L136.38 17.93L137.69 17.93Q138.43 17.93 138.80 17.61Q139.17 17.29 139.17 16.71L139.17 16.71Q139.17 16.12 138.80 15.79Q138.43 15.47 137.69 15.47L137.69 15.47L136.38 15.47ZM148.74 22L146.36 22L146.36 13.60L150.20 13.60Q151.35 13.60 152.19 13.98Q153.02 14.35 153.48 15.06Q153.94 15.76 153.94 16.71L153.94 16.71Q153.94 17.62 153.51 18.30Q153.08 18.98 152.29 19.36L152.29 19.36L154.10 22L151.56 22L150.03 19.77L148.74 19.77L148.74 22ZM148.74 15.47L148.74 17.93L150.06 17.93Q150.79 17.93 151.16 17.61Q151.53 17.29 151.53 16.71L151.53 16.71Q151.53 16.12 151.16 15.79Q150.79 15.47 150.06 15.47L150.06 15.47L148.74 15.47ZM161.10 22L158.72 22L158.72 13.60L161.10 13.60L161.10 22ZM173.02 22L166.28 22L166.28 13.60L172.87 13.60L172.87 15.44L168.63 15.44L168.63 16.85L172.36 16.85L172.36 18.63L168.63 18.63L168.63 20.17L173.02 20.17L173.02 22ZM177.24 21.24L177.24 21.24L178.02 19.49Q178.58 19.86 179.33 20.09Q180.07 20.32 180.79 20.32L180.79 20.32Q182.16 20.32 182.16 19.64L182.16 19.64Q182.16 19.28 181.77 19.11Q181.38 18.93 180.52 18.74L180.52 18.74Q179.57 18.53 178.93 18.30Q178.29 18.06 177.84 17.55Q177.39 17.03 177.39 16.16L177.39 16.16Q177.39 15.39 177.81 14.77Q178.22 14.15 179.06 13.79Q179.89 13.43 181.10 13.43L181.10 13.43Q181.93 13.43 182.73 13.62Q183.54 13.80 184.15 14.17L184.15 14.17L183.42 15.93Q182.22 15.28 181.09 15.28L181.09 15.28Q180.38 15.28 180.06 15.49Q179.74 15.70 179.74 16.04L179.74 16.04Q179.74 16.37 180.12 16.54Q180.50 16.71 181.35 16.89L181.35 16.89Q182.31 17.10 182.94 17.33Q183.57 17.56 184.04 18.07Q184.50 18.58 184.50 19.46L184.50 19.46Q184.50 20.21 184.08 20.83Q183.66 21.44 182.82 21.80Q181.98 22.17 180.78 22.17L180.78 22.17Q179.76 22.17 178.80 21.92Q177.84 21.67 177.24 21.24Z" fill="#FFFFFF" x="108.71000000000001"/></svg>