<svg xmlns="http://www.w3.org/2000/svg" width="228.31" height="35" viewBox="0 0 228.31 35"><rect class="svg__rect" x="0" y="0" width="106.24" height="35" fill="#3BC4F3"/><rect class="svg__rect" x="104.24" y="0" width="124.07" height="35" fill="#3C9AD5"/><path class="svg__text" d="M13.95 18.19L13.95 18.19L13.95 17.39Q13.95 16.19 14.38 15.27Q14.80 14.35 15.60 13.85Q16.40 13.35 17.45 13.35L17.45 13.35Q18.86 13.35 19.73 14.12Q20.59 14.89 20.73 16.29L20.73 16.29L19.25 16.29Q19.14 15.37 18.71 14.96Q18.28 14.55 17.45 14.55L17.45 14.55Q16.48 14.55 15.97 15.26Q15.45 15.96 15.44 17.33L15.44 17.33L15.44 18.09Q15.44 19.47 15.93 20.20Q16.43 20.92 17.38 20.92L17.38 20.92Q18.25 20.92 18.69 20.53Q19.13 20.14 19.25 19.22L19.25 19.22L20.73 19.22Q20.60 20.59 19.72 21.35Q18.84 22.12 17.38 22.12L17.38 22.12Q16.36 22.12 15.59 21.63Q14.81 21.15 14.39 20.26Q13.97 19.37 13.95 18.19ZM24.77 18.00L24.77 18.00L24.77 17.52Q24.77 16.28 25.21 15.32Q25.65 14.37 26.46 13.86Q27.27 13.35 28.31 13.35Q29.35 13.35 30.16 13.85Q30.96 14.35 31.40 15.29Q31.84 16.23 31.85 17.48L31.85 17.48L31.85 17.96Q31.85 19.21 31.41 20.16Q30.98 21.10 30.18 21.61Q29.37 22.12 28.32 22.12L28.32 22.12Q27.28 22.12 26.47 21.61Q25.66 21.10 25.22 20.17Q24.78 19.23 24.77 18.00ZM26.25 17.46L26.25 17.96Q26.25 19.36 26.80 20.13Q27.35 20.90 28.32 20.90L28.32 20.90Q29.31 20.90 29.84 20.15Q30.37 19.40 30.37 17.96L30.37 17.96L30.37 17.51Q30.37 16.09 29.83 15.34Q29.29 14.58 28.31 14.58L28.31 14.58Q27.35 14.58 26.81 15.33Q26.26 16.09 26.25 17.46L26.25 17.46ZM37.80 22L36.31 22L36.31 13.47L37.80 13.47L41.61 19.54L41.61 13.47L43.08 13.47L43.08 22L41.60 22L37.80 15.95L37.80 22ZM49.50 14.66L46.87 14.66L46.87 13.47L53.63 13.47L53.63 14.66L50.97 14.66L50.97 22L49.50 22L49.50 14.66ZM58.17 22L56.63 22L59.85 13.47L61.18 13.47L64.41 22L62.86 22L62.16 20.01L58.86 20.01L58.17 22ZM60.51 15.28L59.28 18.82L61.75 18.82L60.51 15.28ZM69.93 22L68.45 22L68.45 13.47L69.93 13.47L69.93 22ZM76.22 22L74.74 22L74.74 13.47L76.22 13.47L80.04 19.54L80.04 13.47L81.51 13.47L81.51 22L80.02 22L76.22 15.95L76.22 22ZM85.81 19.42L85.81 19.42L87.30 19.42Q87.30 20.15 87.78 20.55Q88.26 20.95 89.15 20.95L89.15 20.95Q89.93 20.95 90.32 20.63Q90.71 20.32 90.71 19.80L90.71 19.80Q90.71 19.24 90.31 18.94Q89.91 18.63 88.88 18.32Q87.85 18.01 87.24 17.63L87.24 17.63Q86.08 16.90 86.08 15.72L86.08 15.72Q86.08 14.69 86.92 14.02Q87.76 13.35 89.10 13.35L89.10 13.35Q89.99 13.35 90.69 13.68Q91.39 14.01 91.78 14.61Q92.18 15.22 92.18 15.96L92.18 15.96L90.71 15.96Q90.71 15.29 90.29 14.91Q89.87 14.54 89.09 14.54L89.09 14.54Q88.36 14.54 87.96 14.85Q87.56 15.16 87.56 15.71L87.56 15.71Q87.56 16.18 87.99 16.50Q88.43 16.81 89.42 17.10Q90.42 17.40 91.02 17.78Q91.63 18.16 91.91 18.65Q92.19 19.13 92.19 19.79L92.19 19.79Q92.19 20.86 91.37 21.49Q90.55 22.12 89.15 22.12L89.15 22.12Q88.23 22.12 87.45 21.77Q86.67 21.43 86.24 20.83Q85.81 20.22 85.81 19.42Z" fill="#FFFFFF"/><path class="svg__text" d="M122.97 22L118.43 22L118.43 13.60L122.73 13.60Q124.33 13.60 125.17 14.19Q126.02 14.79 126.02 15.79L126.02 15.79Q126.02 16.39 125.72 16.87Q125.42 17.34 124.88 17.62L124.88 17.62Q125.61 17.87 126.01 18.41Q126.42 18.94 126.42 19.70L126.42 19.70Q126.42 20.80 125.53 21.40Q124.64 22 122.97 22L122.97 22ZM120.78 18.58L120.78 20.28L122.78 20.28Q124.02 20.28 124.02 19.43L124.02 19.43Q124.02 18.58 122.78 18.58L122.78 18.58L120.78 18.58ZM120.78 15.31L120.78 16.94L122.41 16.94Q123.61 16.94 123.61 16.12L123.61 16.12Q123.61 15.31 122.41 15.31L122.41 15.31L120.78 15.31ZM132.55 22L130.13 22L133.84 13.60L136.18 13.60L139.90 22L137.43 22L136.77 20.37L133.22 20.37L132.55 22ZM134.99 15.93L133.91 18.61L136.07 18.61L134.99 15.93ZM148.02 22L144.05 22L144.05 13.60L148.02 13.60Q149.41 13.60 150.47 14.12Q151.54 14.63 152.13 15.58Q152.72 16.53 152.72 17.80L152.72 17.80Q152.72 19.07 152.13 20.02Q151.54 20.97 150.47 21.48Q149.41 22 148.02 22L148.02 22ZM146.43 15.50L146.43 20.10L147.93 20.10Q149.01 20.10 149.66 19.49Q150.31 18.88 150.31 17.80L150.31 17.80Q150.31 16.72 149.66 16.11Q149.01 15.50 147.93 15.50L147.93 15.50L146.43 15.50ZM166.80 22L164.42 22L164.42 13.60L166.80 13.60L166.80 22ZM175.94 22L171.97 22L171.97 13.60L175.94 13.60Q177.33 13.60 178.39 14.12Q179.46 14.63 180.05 15.58Q180.64 16.53 180.64 17.80L180.64 17.80Q180.64 19.07 180.05 20.02Q179.46 20.97 178.39 21.48Q177.33 22 175.94 22L175.94 22ZM174.35 15.50L174.35 20.10L175.85 20.10Q176.93 20.10 177.58 19.49Q178.23 18.88 178.23 17.80L178.23 17.80Q178.23 16.72 177.58 16.11Q176.93 15.50 175.85 15.50L175.85 15.50L174.35 15.50ZM192.11 22L185.37 22L185.37 13.60L191.96 13.60L191.96 15.44L187.72 15.44L187.72 16.85L191.45 16.85L191.45 18.63L187.72 18.63L187.72 20.17L192.11 20.17L192.11 22ZM198.33 22L195.91 22L199.62 13.60L201.96 13.60L205.67 22L203.21 22L202.55 20.37L198.99 20.37L198.33 22ZM200.77 15.93L199.69 18.61L201.85 18.61L200.77 15.93ZM209.24 21.24L209.24 21.24L210.02 19.49Q210.58 19.86 211.33 20.09Q212.07 20.32 212.79 20.32L212.79 20.32Q214.16 20.32 214.16 19.64L214.16 19.64Q214.16 19.28 213.77 19.11Q213.38 18.93 212.52 18.74L212.52 18.74Q211.57 18.53 210.93 18.30Q210.30 18.06 209.84 17.55Q209.39 17.03 209.39 16.16L209.39 16.16Q209.39 15.39 209.81 14.77Q210.23 14.15 211.06 13.79Q211.90 13.43 213.10 13.43L213.10 13.43Q213.93 13.43 214.74 13.62Q215.54 13.80 216.16 14.17L216.16 14.17L215.42 15.93Q214.22 15.28 213.09 15.28L213.09 15.28Q212.38 15.28 212.06 15.49Q211.74 15.70 211.74 16.04L211.74 16.04Q211.74 16.37 212.12 16.54Q212.51 16.71 213.36 16.89L213.36 16.89Q214.32 17.10 214.95 17.33Q215.58 17.56 216.04 18.07Q216.50 18.58 216.50 19.46L216.50 19.46Q216.50 20.21 216.08 20.83Q215.66 21.44 214.82 21.80Q213.98 22.17 212.78 22.17L212.78 22.17Q211.76 22.17 210.80 21.92Q209.84 21.67 209.24 21.24Z" fill="#FFFFFF" x="117.24"/></svg>